<svg width="32" height="32" viewBox="0 0 32 32" fill="none" xmlns="http://www.w3.org/2000/svg">
<path d="M2.21598 0.736797C1.96417 1.24081 1.59903 2.15049 1.42276 2.76514C1.14576 3.73629 1.10799 4.01902 1.17095 5.13769C1.2339 6.23176 1.29685 6.48992 1.63681 7.10457C2.10267 7.95278 2.59371 8.50597 3.53802 9.24355C4.30606 9.8459 6.14432 10.7679 7.05086 11.0137C7.36563 11.0998 7.50413 11.1735 7.36563 11.1735C6.9879 11.1858 4.97337 10.6204 4.44456 10.3499C3.41211 9.83361 2.87071 9.58775 2.76998 9.58775C2.70703 9.58775 2.69443 9.73527 2.73221 9.91966C2.76998 10.1163 2.80775 10.3622 2.82034 10.4728C2.83293 10.5958 2.8833 10.731 2.93366 10.7679C2.98402 10.817 3.0218 11.0014 3.0218 11.1858C3.0218 11.3579 3.07216 11.5546 3.12252 11.6161C3.18548 11.6899 3.31138 11.9357 3.39952 12.1693C3.86538 13.3125 4.99855 14.6033 6.00582 15.095C6.27023 15.2302 6.95013 15.4884 7.52931 15.6728C8.09589 15.8572 8.56175 16.0662 8.56175 16.1276C8.56175 16.2751 7.21454 16.1645 6.69831 15.9678C6.1695 15.7711 6.14432 16.017 6.63536 16.7177C8.44844 19.3853 10.9036 20.8358 13.5351 20.8113C14.5046 20.799 15.663 20.6391 16.1666 20.4548C16.3681 20.381 16.3807 20.3933 16.2547 20.6269C16.0659 20.9588 14.832 22.2495 14.6935 22.2495C14.6431 22.2495 14.492 22.3479 14.3535 22.4585C14.2276 22.5814 13.447 23.0363 12.6286 23.4665C11.8102 23.8968 11.1177 24.2902 11.0799 24.3393C11.0421 24.3885 10.5889 24.6958 10.0727 25.0155C9.55643 25.3351 8.92689 25.7284 8.68766 25.8883C7.88185 26.4046 1.69976 29.5024 1.47313 29.5024C1.43535 29.5024 1.24649 29.5639 1.04504 29.6499C0.856175 29.7237 0.667313 29.7974 0.629541 29.8097C0.251816 29.9081 0 30.031 0 30.117C0 30.4244 2.63148 31.7643 3.58838 31.9364C4.20533 32.047 5.43923 32.0102 5.99323 31.8504C6.76127 31.6537 7.90703 30.8423 8.95207 29.7728C10.5637 28.1379 11.3821 27.4003 11.8983 27.1053C12.553 26.7242 14.001 26.3431 15.4237 26.1833C17.0983 25.9866 18.7603 25.5686 19.7046 25.1138C21.8577 24.0812 22.4998 23.6509 23.8092 22.3725C25.2194 20.9956 26.1259 19.4467 26.6296 17.5413C27.0325 16.017 27.108 15.7834 27.4228 14.9475C27.5865 14.4927 27.9894 13.7674 28.3167 13.3617C28.8707 12.6487 30.0039 11.7513 30.5327 11.6038C30.6712 11.5669 30.8979 11.4932 31.0364 11.4317C31.1749 11.3702 31.4393 11.2596 31.6407 11.1858C32.2829 10.9646 32.031 10.7925 31.1497 10.8785C30.1046 10.9769 29.387 10.7556 28.1531 9.94425C26.5288 8.88705 25.5719 8.76412 23.7841 9.34189C22.8271 9.66151 21.354 10.7187 20.6489 11.5915C20.3593 11.948 20.0572 12.3168 19.969 12.4274C19.8683 12.5504 19.6669 12.9069 19.5032 13.2511L19.2136 13.8534L18.6596 12.7716C17.9545 11.3825 16.8969 10.3745 15.3482 9.62463C14.769 9.35418 13.1196 8.55514 11.6843 7.86673C8.97725 6.56368 7.84408 5.92444 6.34577 4.83036C5.31332 4.08049 3.90315 2.64221 3.90315 2.33489C3.90315 2.26113 3.85279 2.21196 3.80243 2.21196C3.67652 2.21196 2.82034 0.466351 2.7448 0.0606823C2.70703 -0.11142 2.55594 0.0729753 2.21598 0.736797ZM27.448 11.2965C27.448 11.6407 27.1206 11.8742 26.8814 11.6776C26.5163 11.3825 26.6925 11.0998 27.2339 11.0752C27.3598 11.0629 27.448 11.149 27.448 11.2965ZM9.56902 16.0293C9.56902 16.0662 9.51866 16.1276 9.44311 16.1645C9.38016 16.2014 9.3172 16.1768 9.3172 16.1153C9.3172 16.0416 9.38016 15.9801 9.44311 15.9801C9.51866 15.9801 9.56902 16.0047 9.56902 16.0293Z" fill="#0A82FD"/>
</svg>
