<svg width="130" height="65" viewBox="0 0 130 65" fill="none" xmlns="http://www.w3.org/2000/svg">
<mask id="mask0_3299_4811" style="mask-type:luminance" maskUnits="userSpaceOnUse" x="0" y="0" width="130" height="65">
<path d="M129.212 0.212128H0.212158V64.711H129.212V0.212128Z" fill="white"/>
</mask>
<g mask="url(#mask0_3299_4811)">
<path d="M64.711 0.212128C29.0894 0.212128 0.212158 14.6519 0.212158 32.4616C0.212158 50.2712 29.0894 64.711 64.711 64.711C100.333 64.711 129.212 50.2712 129.212 32.4616C129.212 14.6519 100.33 0.212128 64.711 0.212128ZM64.711 59.6209C31.9018 59.6209 5.30453 47.4611 5.30453 32.4616C5.30453 17.462 31.9018 5.3045 64.711 5.3045C97.5202 5.3045 124.12 17.462 124.12 32.4616C124.12 47.4611 97.5225 59.6209 64.711 59.6209ZM56.5787 26.8049V21.7125H74.782V26.8049H68.2288V43.2174H63.1296V26.8049H56.5787ZM96.7397 21.7125V43.2174H91.6474L82.4115 30.4182V43.2174H77.3214V21.7125H82.4115L91.6474 34.5117V21.7125H96.7397ZM32.5344 43.2174V21.7125H37.6268L43.2835 30.4137L48.9401 21.7125H54.0325V43.2174H48.9401V31.0508L45.0719 36.9874H41.4882L37.6199 31.0508V43.2174H32.5344Z" fill="#F8C000"/>
</g>
</svg>
