<svg width="44" height="44" viewBox="0 0 44 44" fill="none" xmlns="http://www.w3.org/2000/svg">
<path d="M22.0004 21.1383C16.9404 21.1383 12.8337 25.245 12.8337 30.305C12.8337 31.6616 13.1271 32.945 13.6771 34.0816C13.8237 34.4116 13.9887 34.7233 14.1721 35.0166C15.7487 37.675 18.6637 39.4716 22.0004 39.4716C25.3371 39.4716 28.2521 37.675 29.8287 35.0166C30.0121 34.7233 30.1771 34.4116 30.3237 34.0816C30.8737 32.945 31.1671 31.6616 31.1671 30.305C31.1671 25.245 27.0604 21.1383 22.0004 21.1383ZM24.7504 33.2566C24.4754 33.5316 24.1271 33.66 23.7787 33.66C23.4304 33.66 23.0821 33.5316 22.8071 33.2566L21.8354 32.285L20.8271 33.2933C20.5521 33.5683 20.2037 33.6966 19.8554 33.6966C19.5071 33.6966 19.1587 33.5683 18.8837 33.2933C18.3521 32.7616 18.3521 31.8816 18.8837 31.35L19.8921 30.3416L18.9204 29.37C18.3887 28.8383 18.3887 27.9583 18.9204 27.4266C19.4521 26.895 20.3321 26.895 20.8637 27.4266L21.8354 28.3983L22.7521 27.4816C23.2837 26.95 24.1637 26.95 24.6954 27.4816C25.2271 28.0133 25.2271 28.8933 24.6954 29.425L23.7787 30.3416L24.7504 31.3133C25.2821 31.8633 25.2821 32.725 24.7504 33.2566Z" fill="#2563EB"/>
<path d="M37.0331 31.6981C36.3731 32.2848 35.6581 32.7798 34.8881 33.1831C34.2281 33.5131 33.5681 32.8715 33.6781 32.1381C33.7514 31.6065 33.7881 31.0565 33.7881 30.4881C33.7881 23.9248 28.4348 18.5715 21.8714 18.5715C15.3081 18.5715 9.95476 23.9248 9.95476 30.4881C9.95476 31.3315 10.0464 32.1381 10.2114 32.9265C10.3398 33.5681 9.84476 34.2098 9.2031 34.0448C1.96143 32.2848 1.92476 21.1381 10.0281 20.5515H10.1198C4.23476 4.19814 29.0581 -2.34686 31.8998 14.8498C39.8381 15.8581 43.0464 26.4365 37.0331 31.6981Z" fill="#2563EB"/>
</svg>
