<svg width="20" height="20" viewBox="0 0 20 20" fill="none" xmlns="http://www.w3.org/2000/svg">
<path d="M17.8016 1.73242H14.1343L14.5936 6.32606C14.5936 6.32606 15.5124 7.24479 16.8905 7.24479C17.8799 7.24479 18.5536 6.77114 18.855 6.50402C18.9751 6.39756 19.019 6.23502 18.9926 6.07673L18.3453 2.19304C18.301 1.92724 18.071 1.73242 17.8016 1.73242Z" stroke="#84919A" stroke-width="1.5"/>
<path d="M14.1343 1.73242L14.5936 6.32606C14.5936 6.32606 13.6749 7.24479 12.2968 7.24479C10.9187 7.24479 10 6.32606 10 6.32606V1.73242H14.1343Z" stroke="#84919A" stroke-width="1.5"/>
<path d="M9.9999 1.73242V6.32606C9.9999 6.32606 9.08117 7.24479 7.70307 7.24479C6.32498 7.24479 5.40625 6.32606 5.40625 6.32606L5.86561 1.73242H9.9999Z" stroke="#84919A" stroke-width="1.5"/>
<path d="M5.86572 1.73242H2.1984C1.92894 1.73242 1.69897 1.92724 1.65467 2.19304L1.00738 6.07674C0.981006 6.23502 1.02495 6.39756 1.14503 6.50402C1.4463 6.77114 2.12002 7.24479 3.10951 7.24479C4.48761 7.24479 5.40635 6.32606 5.40635 6.32606L5.86572 1.73242Z" stroke="#84919A" stroke-width="1.5"/>
<path d="M1.73755 7.24414V16.4314C1.73755 17.4462 2.56021 18.2689 3.575 18.2689H16.4372C17.452 18.2689 18.2746 17.4462 18.2746 16.4314V7.24414" stroke="#84919A" stroke-width="1.5"/>
<path d="M12.609 18.2697V12.7574C12.609 11.7426 11.7864 10.9199 10.7716 10.9199H8.93413C7.91934 10.9199 7.09668 11.7426 7.09668 12.7574V18.2697" stroke="#84919A" stroke-width="1.5" stroke-miterlimit="16"/>
</svg>
